<?xml version="1.0" standalone="no"?>
<!DOCTYPE svg PUBLIC "-//W3C//DTD SVG 20010904//EN"
 "http://www.w3.org/TR/2001/REC-SVG-20010904/DTD/svg10.dtd">
<svg version="1.0" xmlns="http://www.w3.org/2000/svg"
 width="300.000000pt" height="300.000000pt" viewBox="0 0 300.000000 300.000000"
 preserveAspectRatio="xMidYMid meet">
<metadata>
Created by potrace 1.14, written by Peter Selinger 2001-2017
</metadata>
<g transform="translate(0.000000,300.000000) scale(0.100000,-0.100000)"
fill="#000000" stroke="none">
<path d="M1251 2979 c-94 -16 -174 -38 -301 -84 -95 -34 -290 -143 -356 -200
-7 -5 -29 -23 -49 -40 -205 -164 -382 -422 -465 -676 -62 -190 -79 -307 -75
-509 4 -159 5 -168 24 -261 6 -30 13 -63 15 -74 8 -42 68 -208 98 -272 36 -76
126 -226 139 -231 5 -2 9 -8 9 -14 0 -15 93 -121 175 -201 72 -70 225 -187
244 -187 6 0 11 -4 11 -9 0 -5 8 -11 17 -15 10 -3 36 -16 58 -29 46 -26 191
-88 240 -103 82 -24 125 -36 150 -40 161 -30 192 -32 340 -29 167 4 177 5 316
35 363 80 711 323 913 638 159 245 236 499 241 792 4 208 -16 336 -82 530 -38
112 -139 307 -193 373 -6 7 -31 39 -57 72 -53 67 -147 162 -213 215 -47 39
-148 110 -155 110 -2 0 -21 12 -42 26 -55 37 -245 122 -308 138 -5 1 -19 5
-30 9 -11 3 -31 8 -45 11 -14 3 -36 8 -50 11 -154 37 -403 43 -569 14z"/>
</g>
</svg>
